<svg width="88" height="88" viewBox="0 0 88 88" fill="none" xmlns="http://www.w3.org/2000/svg">
<g filter="url(#filter0_d)">
<rect x="2" y="2" width="78" height="78" rx="39" fill="black" fill-opacity="0.75"/>
</g>
<path d="M46.8594 42.9961C46.8594 39.8841 46.3385 37.5729 45.2969 36.0625C44.2682 34.5521 42.8294 33.7969 40.9805 33.7969C39.1445 33.7969 37.7188 34.5456 36.7031 36.043C35.6875 37.5404 35.1797 39.8581 35.1797 42.9961C35.1797 46.1081 35.6875 48.4193 36.7031 49.9297C37.7188 51.4401 39.1445 52.1953 40.9805 52.1953C41.9049 52.1953 42.7318 52.013 43.4609 51.6484C44.1901 51.2708 44.8021 50.7044 45.2969 49.9492C45.8047 49.194 46.1888 48.2435 46.4492 47.0977C46.7227 45.9388 46.8594 44.5716 46.8594 42.9961ZM52.1914 42.9961C52.1914 45.6523 51.8984 47.8984 51.3125 49.7344C50.7266 51.5703 49.9258 53.0547 48.9102 54.1875C47.8945 55.3203 46.7031 56.1406 45.3359 56.6484C43.9818 57.1432 42.5299 57.3906 40.9805 57.3906C39.431 57.3906 37.9727 57.1367 36.6055 56.6289C35.2513 56.1081 34.0664 55.2812 33.0508 54.1484C32.0482 53.0026 31.2539 51.5182 30.668 49.6953C30.082 47.8594 29.7891 45.6263 29.7891 42.9961C29.7891 40.3398 30.082 38.1003 30.668 36.2773C31.2539 34.4414 32.0482 32.957 33.0508 31.8242C34.0664 30.6914 35.2513 29.8711 36.6055 29.3633C37.9727 28.8555 39.431 28.6016 40.9805 28.6016C42.5299 28.6016 43.9818 28.862 45.3359 29.3828C46.7031 29.8906 47.8945 30.7174 48.9102 31.8633C49.9258 33.0091 50.7266 34.4935 51.3125 36.3164C51.8984 38.1393 52.1914 40.3659 52.1914 42.9961Z" fill="white" fill-opacity="0.8"/>
<defs>
<filter id="filter0_d" x="0" y="0" width="88" height="88" filterUnits="userSpaceOnUse" color-interpolation-filters="sRGB">
<feFlood flood-opacity="0" result="BackgroundImageFix"/>
<feColorMatrix in="SourceAlpha" type="matrix" values="0 0 0 0 0 0 0 0 0 0 0 0 0 0 0 0 0 0 127 0"/>
<feOffset dx="3" dy="3"/>
<feGaussianBlur stdDeviation="2.5"/>
<feColorMatrix type="matrix" values="0 0 0 0 0 0 0 0 0 0 0 0 0 0 0 0 0 0 0.1 0"/>
<feBlend mode="normal" in2="BackgroundImageFix" result="effect1_dropShadow"/>
<feBlend mode="normal" in="SourceGraphic" in2="effect1_dropShadow" result="shape"/>
</filter>
</defs>
</svg>
