<svg width="88" height="88" viewBox="0 0 88 88" fill="none" xmlns="http://www.w3.org/2000/svg">
<g filter="url(#filter0_d)">
<rect x="2" y="2" width="78" height="78" rx="39" fill="black" fill-opacity="0.75"/>
</g>
<path d="M50.9023 35.3906C50.9023 36.5495 50.681 37.6432 50.2383 38.6719C49.7956 39.6875 49.1901 40.5794 48.4219 41.3477C47.6667 42.1029 46.7812 42.7018 45.7656 43.1445C44.75 43.5872 43.6628 43.8086 42.5039 43.8086H39.6914C39.3008 43.8086 38.9362 43.8802 38.5977 44.0234C38.2591 44.1667 37.9596 44.3685 37.6992 44.6289C37.4518 44.8763 37.2565 45.1693 37.1133 45.5078C36.9701 45.8464 36.8984 46.2109 36.8984 46.6016V49.3945H50.1406V55H31.293V46.6016C31.293 45.4427 31.5143 44.3555 31.957 43.3398C32.3997 42.3112 32.9987 41.4193 33.7539 40.6641C34.5221 39.8958 35.4141 39.2969 36.4297 38.8672C37.4453 38.4245 38.5326 38.2031 39.6914 38.2031H42.5039C42.8945 38.2031 43.2591 38.1315 43.5977 37.9883C43.9362 37.8451 44.2292 37.6497 44.4766 37.4023C44.737 37.1419 44.9388 36.8424 45.082 36.5039C45.2253 36.1523 45.2969 35.7812 45.2969 35.3906C45.2969 35 45.2253 34.6354 45.082 34.2969C44.9388 33.9583 44.737 33.6654 44.4766 33.418C44.2292 33.1576 43.9362 32.9557 43.5977 32.8125C43.2591 32.6693 42.8945 32.5977 42.5039 32.5977H32.5039V26.9922H42.5039C43.6628 26.9922 44.75 27.2135 45.7656 27.6562C46.7812 28.099 47.6667 28.7044 48.4219 29.4727C49.1901 30.2279 49.7956 31.1133 50.2383 32.1289C50.681 33.1445 50.9023 34.2318 50.9023 35.3906Z" fill="white" fill-opacity="0.8"/>
<defs>
<filter id="filter0_d" x="0" y="0" width="88" height="88" filterUnits="userSpaceOnUse" color-interpolation-filters="sRGB">
<feFlood flood-opacity="0" result="BackgroundImageFix"/>
<feColorMatrix in="SourceAlpha" type="matrix" values="0 0 0 0 0 0 0 0 0 0 0 0 0 0 0 0 0 0 127 0"/>
<feOffset dx="3" dy="3"/>
<feGaussianBlur stdDeviation="2.5"/>
<feColorMatrix type="matrix" values="0 0 0 0 0 0 0 0 0 0 0 0 0 0 0 0 0 0 0.1 0"/>
<feBlend mode="normal" in2="BackgroundImageFix" result="effect1_dropShadow"/>
<feBlend mode="normal" in="SourceGraphic" in2="effect1_dropShadow" result="shape"/>
</filter>
</defs>
</svg>
