<svg width="88" height="88" viewBox="0 0 88 88" fill="none" xmlns="http://www.w3.org/2000/svg">
<g filter="url(#filter0_d)">
<rect x="2" y="2" width="78" height="78" rx="39" fill="#959595" fill-opacity="0.75"/>
</g>
<path d="M50.8242 46.6016C50.8242 47.7604 50.6029 48.8477 50.1602 49.8633C49.7174 50.8789 49.112 51.7708 48.3438 52.5391C47.5885 53.2943 46.7031 53.8932 45.6875 54.3359C44.6719 54.7786 43.5846 55 42.4258 55H31.2148V49.3945H42.4258C42.8164 49.3945 43.181 49.3229 43.5195 49.1797C43.8581 49.0365 44.151 48.8411 44.3984 48.5938C44.6589 48.3333 44.8607 48.0339 45.0039 47.6953C45.1471 47.3568 45.2188 46.9922 45.2188 46.6016C45.2188 46.2109 45.1471 45.8464 45.0039 45.5078C44.8607 45.1693 44.6589 44.8763 44.3984 44.6289C44.151 44.3685 43.8581 44.1667 43.5195 44.0234C43.181 43.8802 42.8164 43.8086 42.4258 43.8086H34.7891V38.2031H42.4258C42.8164 38.2031 43.181 38.1315 43.5195 37.9883C43.8581 37.8451 44.151 37.6497 44.3984 37.4023C44.6589 37.1419 44.8607 36.8424 45.0039 36.5039C45.1471 36.1523 45.2188 35.7812 45.2188 35.3906C45.2188 35 45.1471 34.6354 45.0039 34.2969C44.8607 33.9583 44.6589 33.6654 44.3984 33.418C44.151 33.1576 43.8581 32.9557 43.5195 32.8125C43.181 32.6693 42.8164 32.5977 42.4258 32.5977H31.2148V26.9922H42.4258C43.5846 26.9922 44.6719 27.2135 45.6875 27.6562C46.7031 28.099 47.5885 28.7044 48.3438 29.4727C49.112 30.2279 49.7174 31.1133 50.1602 32.1289C50.6029 33.1445 50.8242 34.2318 50.8242 35.3906C50.8242 36.4193 50.6354 37.4219 50.2578 38.3984C49.8802 39.362 49.3464 40.2279 48.6562 40.9961C49.3464 41.7643 49.8802 42.6367 50.2578 43.6133C50.6354 44.5768 50.8242 45.5729 50.8242 46.6016Z" fill="black" fill-opacity="0.8"/>
<defs>
<filter id="filter0_d" x="0" y="0" width="88" height="88" filterUnits="userSpaceOnUse" color-interpolation-filters="sRGB">
<feFlood flood-opacity="0" result="BackgroundImageFix"/>
<feColorMatrix in="SourceAlpha" type="matrix" values="0 0 0 0 0 0 0 0 0 0 0 0 0 0 0 0 0 0 127 0"/>
<feOffset dx="3" dy="3"/>
<feGaussianBlur stdDeviation="2.5"/>
<feColorMatrix type="matrix" values="0 0 0 0 0 0 0 0 0 0 0 0 0 0 0 0 0 0 0.1 0"/>
<feBlend mode="normal" in2="BackgroundImageFix" result="effect1_dropShadow"/>
<feBlend mode="normal" in="SourceGraphic" in2="effect1_dropShadow" result="shape"/>
</filter>
</defs>
</svg>
