<svg width="88" height="88" viewBox="0 0 88 88" fill="none" xmlns="http://www.w3.org/2000/svg">
<g filter="url(#filter0_d)">
<rect x="2" y="2" width="78" height="78" rx="39" fill="#959595" fill-opacity="0.75"/>
</g>
<path d="M51.9375 44.7266C51.9375 46.237 51.6641 47.6628 51.1172 49.0039C50.5833 50.3451 49.8411 51.5234 48.8906 52.5391C47.9401 53.5417 46.8073 54.3359 45.4922 54.9219C44.1901 55.5078 42.7773 55.8008 41.2539 55.8008C39.7305 55.8008 38.2917 55.5078 36.9375 54.9219C35.5964 54.3359 34.4245 53.5417 33.4219 52.5391C32.4193 51.5234 31.625 50.3451 31.0391 49.0039C30.4661 47.6628 30.1797 46.237 30.1797 44.7266C30.1797 42.9297 30.3555 41.1784 30.707 39.4727C31.0586 37.7539 31.5729 36.1328 32.25 34.6094C32.9271 33.0729 33.7539 31.6602 34.7305 30.3711C35.707 29.082 36.8138 27.9557 38.0508 26.9922H45.6094C44.8281 27.5 44.0664 28.0664 43.3242 28.6914C42.582 29.3164 41.8724 29.987 41.1953 30.7031C40.5312 31.4193 39.9128 32.1745 39.3398 32.9688C38.7669 33.763 38.2591 34.5898 37.8164 35.4492C38.3763 35.0716 38.9818 34.7526 39.6328 34.4922C40.2969 34.2188 40.974 34.082 41.6641 34.082C43.2396 34.082 44.6589 34.349 45.9219 34.8828C47.1979 35.4036 48.2786 36.1393 49.1641 37.0898C50.0495 38.0273 50.7331 39.1471 51.2148 40.4492C51.6966 41.7513 51.9375 43.1771 51.9375 44.7266ZM46.332 44.7266C46.332 43.9844 46.2083 43.2878 45.9609 42.6367C45.7266 41.9727 45.388 41.3932 44.9453 40.8984C44.5026 40.3906 43.9688 39.9935 43.3438 39.707C42.7188 39.4206 42.0221 39.2773 41.2539 39.2773C40.4857 39.2773 39.7891 39.4206 39.1641 39.707C38.5391 39.9935 38.0052 40.3906 37.5625 40.8984C37.1328 41.3932 36.8008 41.9727 36.5664 42.6367C36.332 43.2878 36.2148 43.9844 36.2148 44.7266C36.2148 45.4427 36.332 46.1328 36.5664 46.7969C36.8138 47.4479 37.1589 48.0273 37.6016 48.5352C38.0443 49.043 38.5716 49.4466 39.1836 49.7461C39.8086 50.0456 40.4987 50.1953 41.2539 50.1953C42.0221 50.1953 42.7188 50.0521 43.3438 49.7656C43.9688 49.4792 44.5026 49.0885 44.9453 48.5938C45.388 48.0859 45.7266 47.5 45.9609 46.8359C46.2083 46.1719 46.332 45.4688 46.332 44.7266Z" fill="black" fill-opacity="0.8"/>
<defs>
<filter id="filter0_d" x="0" y="0" width="88" height="88" filterUnits="userSpaceOnUse" color-interpolation-filters="sRGB">
<feFlood flood-opacity="0" result="BackgroundImageFix"/>
<feColorMatrix in="SourceAlpha" type="matrix" values="0 0 0 0 0 0 0 0 0 0 0 0 0 0 0 0 0 0 127 0"/>
<feOffset dx="3" dy="3"/>
<feGaussianBlur stdDeviation="2.5"/>
<feColorMatrix type="matrix" values="0 0 0 0 0 0 0 0 0 0 0 0 0 0 0 0 0 0 0.1 0"/>
<feBlend mode="normal" in2="BackgroundImageFix" result="effect1_dropShadow"/>
<feBlend mode="normal" in="SourceGraphic" in2="effect1_dropShadow" result="shape"/>
</filter>
</defs>
</svg>
