<svg width="88" height="88" viewBox="0 0 88 88" fill="none" xmlns="http://www.w3.org/2000/svg">
<g filter="url(#filter0_d)">
<rect x="2" y="2" width="78" height="78" rx="39" fill="#959595" fill-opacity="0.75"/>
</g>
<path d="M51.957 47.9922C51.957 49.2552 51.6706 50.4206 51.0977 51.4883C50.5247 52.556 49.737 53.4805 48.7344 54.2617C47.7448 55.0299 46.5859 55.6289 45.2578 56.0586C43.9297 56.5013 42.5104 56.7227 41 56.7227C39.4896 56.7227 38.0703 56.5013 36.7422 56.0586C35.4141 55.6289 34.2487 55.0299 33.2461 54.2617C32.2565 53.4805 31.4753 52.556 30.9023 51.4883C30.3294 50.4206 30.043 49.2552 30.043 47.9922C30.043 47.263 30.1406 46.5534 30.3359 45.8633C30.5312 45.1602 30.8112 44.5026 31.1758 43.8906C31.5534 43.2786 32.0026 42.7188 32.5234 42.2109C33.0443 41.6901 33.6302 41.2474 34.2812 40.8828C33.8776 40.5312 33.513 40.1276 33.1875 39.6719C32.875 39.2161 32.6016 38.7344 32.3672 38.2266C32.1458 37.7188 31.9766 37.1979 31.8594 36.6641C31.7422 36.1172 31.6836 35.5768 31.6836 35.043C31.6836 33.9492 31.9245 32.9271 32.4062 31.9766C32.901 31.013 33.5716 30.1732 34.418 29.457C35.2643 28.7279 36.2539 28.1549 37.3867 27.7383C38.5195 27.3216 39.724 27.1133 41 27.1133C42.2891 27.1133 43.5 27.3216 44.6328 27.7383C45.7656 28.1549 46.7552 28.7279 47.6016 29.457C48.4609 30.1732 49.1315 31.013 49.6133 31.9766C50.1081 32.9271 50.3555 33.9492 50.3555 35.043C50.3555 35.5768 50.2904 36.1172 50.1602 36.6641C50.043 37.1979 49.8737 37.7253 49.6523 38.2461C49.431 38.7539 49.1576 39.2357 48.832 39.6914C48.5195 40.1471 48.1615 40.5573 47.7578 40.9219C48.3958 41.2865 48.9753 41.7227 49.4961 42.2305C50.0169 42.7383 50.4596 43.2982 50.8242 43.9102C51.1888 44.5221 51.4688 45.1732 51.6641 45.8633C51.8594 46.5534 51.957 47.263 51.957 47.9922ZM44.8672 35.6484C44.8672 35.1927 44.763 34.7695 44.5547 34.3789C44.3594 33.9753 44.0859 33.6237 43.7344 33.3242C43.3958 33.0247 42.9922 32.7904 42.5234 32.6211C42.0547 32.4518 41.5599 32.3672 41.0391 32.3672C40.5052 32.3672 40.0039 32.4518 39.5352 32.6211C39.0664 32.7904 38.6562 33.0247 38.3047 33.3242C37.9661 33.6237 37.6927 33.9753 37.4844 34.3789C37.2891 34.7695 37.1914 35.1927 37.1914 35.6484C37.1914 36.1042 37.2891 36.5273 37.4844 36.918C37.6927 37.3086 37.9661 37.6471 38.3047 37.9336C38.6562 38.2201 39.0664 38.4479 39.5352 38.6172C40.0039 38.7865 40.5052 38.8711 41.0391 38.8711C41.5599 38.8711 42.0547 38.7865 42.5234 38.6172C42.9922 38.4479 43.3958 38.2201 43.7344 37.9336C44.0859 37.6471 44.3594 37.3086 44.5547 36.918C44.763 36.5273 44.8672 36.1042 44.8672 35.6484ZM46.3906 47.8359C46.3906 47.2109 46.2474 46.6315 45.9609 46.0977C45.6875 45.5508 45.3034 45.0755 44.8086 44.6719C44.3268 44.2682 43.7539 43.9492 43.0898 43.7148C42.4388 43.4805 41.7422 43.3633 41 43.3633C40.2578 43.3633 39.5612 43.4805 38.9102 43.7148C38.2591 43.9492 37.6862 44.2682 37.1914 44.6719C36.7096 45.0755 36.3255 45.5508 36.0391 46.0977C35.7656 46.6315 35.6289 47.2109 35.6289 47.8359C35.6289 48.4609 35.7656 49.0339 36.0391 49.5547C36.3255 50.0755 36.7096 50.5247 37.1914 50.9023C37.6862 51.2799 38.2591 51.5794 38.9102 51.8008C39.5612 52.0091 40.2578 52.1133 41 52.1133C41.7422 52.1133 42.4388 52.0091 43.0898 51.8008C43.7539 51.5794 44.3268 51.2799 44.8086 50.9023C45.3034 50.5247 45.6875 50.0755 45.9609 49.5547C46.2474 49.0339 46.3906 48.4609 46.3906 47.8359Z" fill="black" fill-opacity="0.8"/>
<defs>
<filter id="filter0_d" x="0" y="0" width="88" height="88" filterUnits="userSpaceOnUse" color-interpolation-filters="sRGB">
<feFlood flood-opacity="0" result="BackgroundImageFix"/>
<feColorMatrix in="SourceAlpha" type="matrix" values="0 0 0 0 0 0 0 0 0 0 0 0 0 0 0 0 0 0 127 0"/>
<feOffset dx="3" dy="3"/>
<feGaussianBlur stdDeviation="2.5"/>
<feColorMatrix type="matrix" values="0 0 0 0 0 0 0 0 0 0 0 0 0 0 0 0 0 0 0.1 0"/>
<feBlend mode="normal" in2="BackgroundImageFix" result="effect1_dropShadow"/>
<feBlend mode="normal" in="SourceGraphic" in2="effect1_dropShadow" result="shape"/>
</filter>
</defs>
</svg>
