<svg width="88" height="88" viewBox="0 0 88 88" fill="none" xmlns="http://www.w3.org/2000/svg">
<g filter="url(#filter0_d)">
<rect x="2" y="2" width="78" height="78" rx="39" fill="#959595" fill-opacity="0.75"/>
</g>
<path d="M51.8008 38.2852C51.8008 40.082 51.6185 41.8398 51.2539 43.5586C50.9023 45.2643 50.388 46.8789 49.7109 48.4023C49.0339 49.9258 48.207 51.332 47.2305 52.6211C46.2539 53.9102 45.1471 55.0365 43.9102 56H36.3516C37.1458 55.4922 37.9141 54.9258 38.6562 54.3008C39.3984 53.6758 40.1016 53.0052 40.7656 52.2891C41.4427 51.5729 42.0677 50.8177 42.6406 50.0234C43.2135 49.2292 43.7214 48.4089 44.1641 47.5625C43.5911 47.9401 42.9792 48.2656 42.3281 48.5391C41.6771 48.7995 41.0065 48.9297 40.3164 48.9297C38.7279 48.9297 37.3021 48.6693 36.0391 48.1484C34.776 47.6146 33.6953 46.8789 32.7969 45.9414C31.9115 44.9909 31.2279 43.8646 30.7461 42.5625C30.2773 41.2604 30.043 39.8346 30.043 38.2852C30.043 36.7747 30.3099 35.349 30.8438 34.0078C31.3906 32.6536 32.1393 31.4753 33.0898 30.4727C34.0404 29.457 35.1667 28.6562 36.4688 28.0703C37.7708 27.4844 39.1836 27.1914 40.707 27.1914C42.2435 27.1914 43.6823 27.4844 45.0234 28.0703C46.3776 28.6562 47.556 29.457 48.5586 30.4727C49.5612 31.4753 50.349 32.6536 50.9219 34.0078C51.5078 35.349 51.8008 36.7747 51.8008 38.2852ZM45.8047 38.2852C45.8047 37.569 45.681 36.8789 45.4336 36.2148C45.1862 35.5508 44.8346 34.9648 44.3789 34.457C43.9362 33.9492 43.4023 33.5456 42.7773 33.2461C42.1523 32.9466 41.4622 32.7969 40.707 32.7969C39.9388 32.7969 39.2422 32.9466 38.6172 33.2461C38.0052 33.5326 37.4779 33.9232 37.0352 34.418C36.5924 34.9128 36.2539 35.4922 36.0195 36.1562C35.7852 36.8203 35.668 37.5299 35.668 38.2852C35.668 39.0273 35.7852 39.7305 36.0195 40.3945C36.2539 41.0456 36.5924 41.6185 37.0352 42.1133C37.4779 42.6081 38.0052 42.9987 38.6172 43.2852C39.2422 43.5716 39.9388 43.7148 40.707 43.7148C41.4753 43.7148 42.1719 43.5716 42.7969 43.2852C43.4349 42.9987 43.9753 42.6081 44.418 42.1133C44.8607 41.6185 45.1992 41.0456 45.4336 40.3945C45.681 39.7305 45.8047 39.0273 45.8047 38.2852Z" fill="black" fill-opacity="0.8"/>
<defs>
<filter id="filter0_d" x="0" y="0" width="88" height="88" filterUnits="userSpaceOnUse" color-interpolation-filters="sRGB">
<feFlood flood-opacity="0" result="BackgroundImageFix"/>
<feColorMatrix in="SourceAlpha" type="matrix" values="0 0 0 0 0 0 0 0 0 0 0 0 0 0 0 0 0 0 127 0"/>
<feOffset dx="3" dy="3"/>
<feGaussianBlur stdDeviation="2.5"/>
<feColorMatrix type="matrix" values="0 0 0 0 0 0 0 0 0 0 0 0 0 0 0 0 0 0 0.1 0"/>
<feBlend mode="normal" in2="BackgroundImageFix" result="effect1_dropShadow"/>
<feBlend mode="normal" in="SourceGraphic" in2="effect1_dropShadow" result="shape"/>
</filter>
</defs>
</svg>
