<svg width="88" height="88" viewBox="0 0 88 88" fill="none" xmlns="http://www.w3.org/2000/svg">
<g filter="url(#filter0_d)">
<rect x="2" y="2" width="78" height="78" rx="39" fill="#0F0F1B" fill-opacity="0.95"/>
</g>
<path d="M36.293 35.5938C36.293 34.4349 36.1237 33.582 35.7852 33.0352C35.4596 32.4753 34.9844 32.1953 34.3594 32.1953C33.7604 32.1953 33.2982 32.4753 32.9727 33.0352C32.6471 33.582 32.4844 34.4349 32.4844 35.5938C32.4844 36.7396 32.6471 37.5924 32.9727 38.1523C33.2982 38.7122 33.7604 38.9922 34.3594 38.9922C34.9844 38.9922 35.4596 38.7122 35.7852 38.1523C36.1237 37.5924 36.293 36.7396 36.293 35.5938ZM40.0039 35.5938C40.0039 36.8958 39.8542 38.0026 39.5547 38.9141C39.2682 39.8125 38.8711 40.5417 38.3633 41.1016C37.8555 41.6615 37.2565 42.0651 36.5664 42.3125C35.8893 42.5599 35.1536 42.6836 34.3594 42.6836C33.5781 42.6836 32.8424 42.5534 32.1523 42.293C31.4753 42.0326 30.8828 41.6224 30.375 41.0625C29.8672 40.4896 29.4635 39.7539 29.1641 38.8555C28.8776 37.957 28.7344 36.8698 28.7344 35.5938C28.7344 34.2917 28.8776 33.1914 29.1641 32.293C29.4635 31.3945 29.8672 30.6654 30.375 30.1055C30.8828 29.5456 31.4753 29.1419 32.1523 28.8945C32.8424 28.6471 33.5781 28.5234 34.3594 28.5234C35.1536 28.5234 35.8893 28.6536 36.5664 28.9141C37.2565 29.1615 37.8555 29.5651 38.3633 30.125C38.8711 30.6849 39.2682 31.4141 39.5547 32.3125C39.8542 33.2109 40.0039 34.3047 40.0039 35.5938ZM35.4922 57H31.2539L46.6445 28.9922H50.8828L35.4922 57ZM49.5352 50.3203C49.5352 49.1484 49.3659 48.2891 49.0273 47.7422C48.7018 47.1953 48.2266 46.9219 47.6016 46.9219C47.0026 46.9219 46.5404 47.1953 46.2148 47.7422C45.8893 48.2891 45.7266 49.1484 45.7266 50.3203C45.7266 51.4531 45.8893 52.2995 46.2148 52.8594C46.5404 53.4062 47.0026 53.6797 47.6016 53.6797C48.2266 53.6797 48.7018 53.4062 49.0273 52.8594C49.3659 52.2995 49.5352 51.4531 49.5352 50.3203ZM53.2461 50.3203C53.2461 51.6224 53.0964 52.7227 52.7969 53.6211C52.5104 54.5195 52.1133 55.2487 51.6055 55.8086C51.0977 56.3685 50.4987 56.7721 49.8086 57.0195C49.1315 57.2669 48.3958 57.3906 47.6016 57.3906C46.8203 57.3906 46.0846 57.2604 45.3945 57C44.7174 56.7526 44.125 56.349 43.6172 55.7891C43.1094 55.2161 42.7057 54.4805 42.4062 53.582C42.1198 52.6836 41.9766 51.5964 41.9766 50.3203C41.9766 49.0182 42.1198 47.918 42.4062 47.0195C42.7057 46.1211 43.1094 45.3919 43.6172 44.832C44.125 44.2721 44.7174 43.8685 45.3945 43.6211C46.0846 43.3607 46.8203 43.2305 47.6016 43.2305C48.3958 43.2305 49.1315 43.3607 49.8086 43.6211C50.4987 43.8685 51.0977 44.2786 51.6055 44.8516C52.1133 45.4115 52.5104 46.1406 52.7969 47.0391C53.0964 47.9375 53.2461 49.0312 53.2461 50.3203Z" fill="white"/>
<defs>
<filter id="filter0_d" x="0" y="0" width="88" height="88" filterUnits="userSpaceOnUse" color-interpolation-filters="sRGB">
<feFlood flood-opacity="0" result="BackgroundImageFix"/>
<feColorMatrix in="SourceAlpha" type="matrix" values="0 0 0 0 0 0 0 0 0 0 0 0 0 0 0 0 0 0 127 0"/>
<feOffset dx="3" dy="3"/>
<feGaussianBlur stdDeviation="2.5"/>
<feColorMatrix type="matrix" values="0 0 0 0 0 0 0 0 0 0 0 0 0 0 0 0 0 0 0.1 0"/>
<feBlend mode="normal" in2="BackgroundImageFix" result="effect1_dropShadow"/>
<feBlend mode="normal" in="SourceGraphic" in2="effect1_dropShadow" result="shape"/>
</filter>
</defs>
</svg>
