<svg width="60" height="40" viewBox="0 0 60 40" fill="none" xmlns="http://www.w3.org/2000/svg">
<path d="M0 20C0 10.5719 0 5.85786 2.92893 2.92893C5.85786 0 10.5719 0 20 0H60V40H20C10.5719 40 5.85786 40 2.92893 37.0711C0 34.1421 0 29.4281 0 20Z" fill="black" fill-opacity="0.8"/>
<path d="M30 16.005C30.7911 16.005 31.5645 16.2396 32.2223 16.6791C32.8801 17.1187 33.3928 17.7434 33.6955 18.4743C33.9983 19.2052 34.0775 20.0094 33.9231 20.7854C33.7688 21.5613 33.3878 22.274 32.8284 22.8334C32.269 23.3928 31.5563 23.7738 30.7804 23.9281C30.0044 24.0825 29.2002 24.0033 28.4693 23.7005C27.7384 23.3978 27.1136 22.8851 26.6741 22.2273C26.2346 21.5695 26 20.7961 26 20.005C26.0013 18.9445 26.4232 17.9279 27.173 17.178C27.9229 16.4282 28.9395 16.0063 30 16.005ZM30 14.005C28.8133 14.005 27.6533 14.3569 26.6666 15.0162C25.6799 15.6755 24.9109 16.6125 24.4567 17.7089C24.0026 18.8053 23.8838 20.0117 24.1153 21.1755C24.3468 22.3394 24.9182 23.4085 25.7574 24.2476C26.5965 25.0868 27.6656 25.6582 28.8295 25.8897C29.9933 26.1212 31.1997 26.0024 32.2961 25.5483C33.3925 25.0942 34.3295 24.3251 34.9888 23.3384C35.6481 22.3517 36 21.1917 36 20.005C36 18.4137 35.3679 16.8876 34.2426 15.7624C33.1174 14.6371 31.5913 14.005 30 14.005Z" fill="white"/>
<path d="M19.394 10.813L20.808 9.39801L24.314 12.904L22.9 14.318L19.394 10.813Z" fill="white"/>
<path d="M16 19.005H21V21.005H16V19.005Z" fill="white"/>
<path d="M19.394 29.197L22.9 25.691L24.314 27.106L20.808 30.611L19.394 29.197Z" fill="white"/>
<path d="M29 29.005H31V34.005H29V29.005Z" fill="white"/>
<path d="M35.687 27.106L37.101 25.691L40.607 29.197L39.193 30.611L35.687 27.106Z" fill="white"/>
<path d="M39 19.005H44V21.005H39V19.005Z" fill="white"/>
<path d="M35.687 12.904L39.193 9.39801L40.607 10.813L37.101 14.318L35.687 12.904Z" fill="white"/>
<path d="M29 6.005H31V11.005H29V6.005Z" fill="white"/>
</svg>
