<svg width="60" height="40" viewBox="0 0 60 40" fill="none" xmlns="http://www.w3.org/2000/svg">
<path d="M0 0H40C49.4281 0 54.1421 0 57.0711 2.92893C60 5.85786 60 10.5719 60 20C60 29.4281 60 34.1421 57.0711 37.0711C54.1421 40 49.4281 40 40 40H0V0Z" fill="white" fill-opacity="0.8"/>
<path d="M41.5555 28.1689C41.4763 28.0048 41.3485 27.869 41.1895 27.78C41.0305 27.691 40.848 27.653 40.6667 27.6711H39.9111C37.6992 27.6108 35.5732 26.8021 33.8805 25.3771C32.1877 23.9521 31.0284 21.9951 30.5918 19.8259C30.1553 17.6567 30.4675 15.4036 31.4772 13.4348C32.487 11.4659 34.1347 9.89781 36.1511 8.98665C36.3235 8.91432 36.4686 8.78949 36.566 8.62991C36.6633 8.47033 36.7079 8.28412 36.6933 8.09777C36.6872 7.91861 36.627 7.74549 36.5208 7.60113C36.4145 7.45678 36.267 7.34793 36.0978 7.28888C34.6723 6.77538 33.1684 6.5137 31.6533 6.51554C28.0888 6.51554 24.6703 7.93154 22.1498 10.452C19.6293 12.9725 18.2133 16.391 18.2133 19.9555C18.2133 23.5201 19.6293 26.9386 22.1498 29.4591C24.6703 31.9795 28.0888 33.3955 31.6533 33.3955C33.4915 33.4066 35.3116 33.0318 36.9959 32.2953C38.6802 31.5588 40.1911 30.4771 41.4311 29.12C41.5406 28.99 41.6106 28.8312 41.6326 28.6627C41.6547 28.4941 41.6279 28.3227 41.5555 28.1689ZM31.68 31.6622C28.587 31.6622 25.6206 30.4335 23.4335 28.2464C21.2465 26.0593 20.0178 23.093 20.0178 20C20.0178 16.907 21.2465 13.9406 23.4335 11.7536C25.6206 9.56646 28.587 8.33777 31.68 8.33777C32.2755 8.33466 32.8703 8.38224 33.4578 8.47999C31.5537 9.81403 30.0963 11.6914 29.276 13.8668C28.4557 16.0422 28.3107 18.4144 28.8599 20.6735C29.409 22.9326 30.6269 24.9735 32.3542 26.5296C34.0816 28.0856 36.2382 29.0845 38.5422 29.3955C36.5634 30.8797 34.1535 31.6757 31.68 31.6622Z" fill="black"/>
</svg>
